<?xml version="1.0" encoding="UTF-8"?> <svg xmlns="http://www.w3.org/2000/svg" viewBox="0 0 1069.31 464.5"><g id="Layer_2" data-name="Layer 2"><g id="_2_Lines" data-name="2 Lines"><path d="M428.83,348.2c-55.65,8.7-111.31,15.86-167,19.49q-29.16-33-58.32-66-19.51,12.8-39,24.6-3.24,21.87-6.47,43.63a851.08,851.08,0,0,1-134.39-14Q37.78,255.54,51.92,152.72a890.54,890.54,0,0,0,134.39.47q-4.71,33-9.43,65.77c33.27-23,66.54-48.32,99.81-75.5,56.67-8.15,113.34-19.78,170-32.79-45.67,40.29-91.35,78.5-137,113.54C349.39,265.15,389.11,306.24,428.83,348.2Z" transform="translate(-8.35 -11.74)"></path><path d="M434.21,347.36Q448.34,228.2,462.48,107c44.8-10.48,89.59-21.7,134.39-32.62Q582.74,200.27,568.6,324.26C523.8,332.23,479,340.27,434.21,347.36Z" transform="translate(-8.35 -11.74)"></path><path d="M1049.38,288.75a929.84,929.84,0,0,0-134.39-7q7.8-74.56,15.61-149.59l-3,.12q-34,76.11-68,151.7c-30.57,1.93-61.15,4.93-91.72,8.68q-19.25-69.3-38.48-136.75l-3,.54q-7.82,72.27-15.62,144c-42,6.25-84,13.53-126,21Q598.87,196.88,613,70.48c63.38-15.35,126.77-29.87,190.16-40.63q11.31,47.93,22.63,96.59l3-.38Q850.43,73.14,872,19.77c68.54-8.28,137.08-10.93,205.62-4.26Q1063.52,152.83,1049.38,288.75Z" transform="translate(-8.35 -11.74)"></path><path d="M153.67,394.18c9.14,5.43,14.15,13.45,15,24.23,1.31,16.06-2,28.31-9.92,36.47-4.87,5-11.46,8.61-19.78,10.7s-18.87,2.51-31.64,1.05a816.89,816.89,0,0,1-99-17.41Q14.17,410.48,20,371.33a820.85,820.85,0,0,0,96.87,13.16C132.26,385.67,144.52,388.74,153.67,394.18ZM69.72,408.93q-1.64,11.34-3.29,22.67,12.75,2,25.5,3.54c6.21.76,10.89-.27,14-3a10.75,10.75,0,0,0,3-4.45,13.17,13.17,0,0,0,.74-5.62,8.45,8.45,0,0,0-4.24-6.75,24.42,24.42,0,0,0-10.23-3.12Q82.47,410.75,69.72,408.93Z" transform="translate(-8.35 -11.74)"></path><path d="M252.31,476.16c-26.36.65-45.92-2.74-58.7-9.11S173.93,451,172.88,438.21a47.28,47.28,0,0,1,3.16-21.5,40.13,40.13,0,0,1,12.81-17.17c6.84-5.36,16.18-9.41,28-12.32s26.66-4.8,44.47-5.88c26.36-1.62,45.9-.38,58.63,4.72s19.61,14.19,20.66,27.49a55.74,55.74,0,0,1-3.09,22.94,46.2,46.2,0,0,1-12.74,19.33c-6.93,6.19-16.3,11-28.09,14.44S270.11,475.72,252.31,476.16Zm6.61-62.53c-9.71.48-17,2.84-21.75,7.17a16.11,16.11,0,0,0-4.14,5.74,13.21,13.21,0,0,0-1.11,6.24c.29,3.7,2.33,6.56,6.09,8.57s9.34,2.91,16.72,2.64c9.71-.35,17-2.83,21.75-7.34a16.78,16.78,0,0,0,4.14-5.93,13.85,13.85,0,0,0,1.11-6.38q-.45-5.61-6.1-8.45C271.87,414,266.3,413.27,258.92,413.63Z" transform="translate(-8.35 -11.74)"></path><path d="M505.17,354.18q-5.76,47.7-11.53,95.1-29.2,4.11-58.42,7.86-19.14-17.85-38.29-35.51l-1.21.15q-2.58,20.36-5.16,40.66-25.29,2.78-50.59,4.95,5.76-45,11.53-90.41,29.47-3.47,59-7.77,18.85,17.09,37.7,34.36l1.35-.2q2.46-20.4,4.93-40.85Q479.81,358.5,505.17,354.18Z" transform="translate(-8.35 -11.74)"></path><path d="M645.3,339.08c9.14,4.38,14.16,12.75,15,25,1.32,18.3-2,33-9.91,44a55.44,55.44,0,0,1-19.79,16.65Q618.16,431.28,599,434c-33,4.77-66,9.69-99,14.38q5.83-47.5,11.67-95.31c32.28-5.49,64.57-11.16,96.86-16.64Q631.6,332.53,645.3,339.08Zm-83.94,39.5q-1.65,13.71-3.3,27.38l25.5-4q9.32-1.44,14.05-7.54a17.79,17.79,0,0,0,3-6,18.89,18.89,0,0,0,.74-6.71q-.36-4.92-4.24-6.65t-10.22-.69Z" transform="translate(-8.35 -11.74)"></path><path d="M743.94,419.8c-26.35,2.69-45.92,1.56-58.69-3.84s-19.68-15.24-20.73-29.78a66.61,66.61,0,0,1,3.15-25.37,56.94,56.94,0,0,1,12.81-21.95c6.85-7.25,16.19-13.3,28-18.06s26.66-8.38,44.47-10.62c26.35-3.33,45.89-1.69,58.62,4.43s19.62,17,20.66,32.26A71,71,0,0,1,829.17,373a52.29,52.29,0,0,1-12.73,21.73c-6.94,6.91-16.3,12.33-28.1,16.37S761.75,418,743.94,419.8Zm6.62-72.35c-9.72,1.14-17,4.48-21.76,9.9a21.05,21.05,0,0,0-4.13,7,18.07,18.07,0,0,0-1.12,7.3,10.7,10.7,0,0,0,6.1,9.28q5.64,2.94,16.71,1.71c9.72-1.07,17-4.23,21.76-9.59a20.74,20.74,0,0,0,4.13-7,18.25,18.25,0,0,0,1.12-7.36,11,11,0,0,0-6.1-9.5C763.5,347.18,757.93,346.58,750.56,347.45Z" transform="translate(-8.35 -11.74)"></path><path d="M831.6,408.56q5.77-51.36,11.53-103,27-1.87,54-2.64Q891.34,355,885.57,406.86,858.59,407.13,831.6,408.56Z" transform="translate(-8.35 -11.74)"></path><path d="M1046.07,354.13q-23.68-3.33-47.36-5.32-3.4,31.13-6.82,62.17-27-2.5-54-3.46,3.41-30.81,6.83-61.71-23.61-.66-47.22-.26,2.34-21.35,4.7-42.74c49.51-1.12,99,1,148.54,7.7Q1048.42,332.34,1046.07,354.13Z" transform="translate(-8.35 -11.74)"></path></g></g></svg> 