<svg id="Layer_1" data-name="Layer 1" xmlns="http://www.w3.org/2000/svg" width="866.0841" height="127.6826" viewBox="0 0 866.0841 127.6826"><defs><style>.cls-1{fill:#fff;}</style></defs><path d="M77.7842,126.4328a28.0375,28.0375,0,0,1-17.85-5.9853,31.161,31.161,0,0,1-10.5054-15.7041c-1.5078-4.8047-2.82-9.2393-3.9063-13.2017-2.7627,1.3047-5.2085,2.3379-7.2968,3.0825l.2954,27.8946a2.4584,2.4584,0,0,1-2.4585,2.4853H7.063a2.4485,2.4485,0,0,1-1.7593-.7324,2.4182,2.4182,0,0,1-.7-1.7461c.206-14.0234.4082-41.5737.6181-84.2261V27.6653a44.31,44.31,0,0,0-1.0712-9.5328,16.4846,16.4846,0,0,0-2.65-5.7583L1.26,12.0529l-.0083-.4013a5.2856,5.2856,0,0,1,1.607-3.92C6.0346,4.487,14.1264,2.9094,27.5957,2.9094a26.9089,26.9089,0,0,1,7.251.8433c.9135.2622,3.6875,1.0585,3.6875,3.2656v3.4946c-.2095,14-.3135,36.43-.3179,68.5459a36.35,36.35,0,0,0,7.0078-5.2749,31.3767,31.3767,0,0,0,6.394-10.1567c1.9053-4.481,3.3985-10.5987,4.439-18.1836l.148-1.08H86.5473a2.4772,2.4772,0,0,1,2.3975,3.083A59.3422,59.3422,0,0,1,71.4619,76.7859l4.956,13.6655a80.6643,80.6643,0,0,0,3.6133,10.0693c2.1519,5.1885,7.0738,7.6905,15.0645,7.6905h1.25V122.675l-.5552.3711a20.5493,20.5493,0,0,1-6.9541,2.4092A55.399,55.399,0,0,1,77.7842,126.4328Z"/><path class="cls-1" d="M27.5957,4.1594a25.5756,25.5756,0,0,1,6.9082.7956q2.7765.7968,2.78,2.0635v3.4943q-.3205,21.44-.3176,70.6756a39.04,39.04,0,0,0,9.1322-6.5116,32.4254,32.4254,0,0,0,6.67-10.5606q2.9376-6.9095,4.5271-18.5029H86.5474a1.2277,1.2277,0,0,1,1.187,1.521,57.8672,57.8672,0,0,1-17.7333,29.29l5.2413,14.4539a80.8011,80.8011,0,0,0,3.6525,10.1639q3.4918,8.4216,16.2009,8.4193v12.5461a19.6368,19.6368,0,0,1-6.5127,2.2241,53.8788,53.8788,0,0,1-10.7991.9514A26.6962,26.6962,0,0,1,60.71,119.4667a29.7831,29.7831,0,0,1-10.0849-15.0889q-2.5428-8.0994-4.2887-14.6121a80.7347,80.7347,0,0,1-9.37,3.9712l.3046,28.7958a1.2088,1.2088,0,0,1-1.2087,1.2216l-28.9995,0a1.195,1.195,0,0,1-1.2087-1.21q.3078-20.9963.618-84.238V27.6652A45.2961,45.2961,0,0,0,5.36,17.8176,17.6278,17.6278,0,0,0,2.501,11.6248Q2.3415,4.1593,27.5957,4.1594m0-2.5c-14.0148,0-22.1591,1.6517-25.63,5.1981A6.5791,6.5791,0,0,0,.0015,11.6781l.0172.803L.5,13.1238a15.2425,15.2425,0,0,1,2.4408,5.3249,43.0977,43.0977,0,0,1,1.031,9.249V38.3061c-.2068,42.0161-.4146,70.35-.6177,84.2013a3.6948,3.6948,0,0,0,3.7084,3.747l29,0a3.7087,3.7087,0,0,0,3.7086-3.7481l-.2858-27.0121c1.5711-.59,3.3179-1.3243,5.2263-2.1969,1.01,3.6085,2.192,7.574,3.528,11.8294a32.36,32.36,0,0,0,10.9188,16.3006,29.2592,29.2592,0,0,0,18.6258,6.2554,56.6188,56.6188,0,0,0,11.3053-1.0032,21.6394,21.6394,0,0,0,7.396-2.5939l1.1105-.7425V106.961h-2.5c-7.4289,0-11.9729-2.2495-13.8916-6.8768l-.0179-.0431-.02-.0425a78.8437,78.8437,0,0,1-3.53-9.8389l-.02-.0677-.0241-.0665L72.9186,77.136A60.5561,60.5561,0,0,0,90.1552,47.7583a3.7275,3.7275,0,0,0-3.6078-4.645H55.115l-.2963,2.16c-1.025,7.4743-2.4889,13.4848-4.351,17.8644A30.16,30.16,0,0,1,44.35,72.89a33.24,33.24,0,0,1-4.8826,3.9129c.0089-30.9088.1127-52.6088.3167-66.2532l0-3.5316c0-2.0895-1.5445-3.5923-4.59-4.4665a28.1339,28.1339,0,0,0-7.5979-.8926Z"/><path d="M96.8427,124.7629a2.453,2.453,0,0,1-2.4575-2.5361c.2969-8.5918.5415-25.2666.7476-50.9776V67.13a44.0754,44.0754,0,0,0-1.0718-9.5317,15.2149,15.2149,0,0,0-2.52-5.3916,2.4177,2.4177,0,0,1-.5054-1.7178c.6089-5.5366,8.97-8.1148,26.3125-8.1148a27.66,27.66,0,0,1,7.41.8413c.9131.2623,3.686,1.0582,3.686,3.2681l-.16,3.5508c-.3154,8.8433-.4755,20.3169-.4755,34.09,0,16.2056.1948,29.0225.5795,38.0957a2.41,2.41,0,0,1-.6723,1.7862,2.4763,2.4763,0,0,1-1.7832.7568Zm13.8345-88.7822a21.7876,21.7876,0,0,1-12.8725-3.8823,12.9976,12.9976,0,0,1-5.6895-11.1866A12.7446,12.7446,0,0,1,97.978,9.8757a22.5424,22.5424,0,0,1,13.0166-3.8721A21.9133,21.9133,0,0,1,123.7793,9.88a12.7963,12.7963,0,0,1,5.7773,11.0317A12.9427,12.9427,0,0,1,123.78,32.1037,22.4257,22.4257,0,0,1,110.6772,35.9807Z"/><path class="cls-1" d="M110.9946,7.2537a20.5976,20.5976,0,0,1,12.07,3.6524,11.561,11.561,0,0,1,5.2414,10.0058,11.7028,11.7028,0,0,1-5.2414,10.1663,21.1084,21.1084,0,0,1-12.388,3.6525,20.47,20.47,0,0,1-12.15-3.6525,11.7547,11.7547,0,0,1-5.1623-10.1663,11.51,11.51,0,0,1,5.32-10.0058,21.2187,21.2187,0,0,1,12.3089-3.6524m6.3534,36.3707a26.3085,26.3085,0,0,1,7.0675.7933q2.7765.7968,2.7789,2.0659l-.1582,3.4942q-.4764,13.3407-.4769,34.1467,0,24.4466.58,38.1481a1.1909,1.1909,0,0,1-1.2066,1.24l-29.09,0a1.2011,1.2011,0,0,1-1.2079-1.2428q.4458-12.9141.7478-51.01V67.13a45.1329,45.1329,0,0,0-1.1121-9.8476,16.3822,16.3822,0,0,0-2.7334-5.8308,1.18,1.18,0,0,1-.2587-.8275q.77-7,25.07-7M110.9946,4.7537A23.7678,23.7678,0,0,0,97.2709,8.845a13.9322,13.9322,0,0,0-6.4057,12.0669,14.1858,14.1858,0,0,0,6.2179,12.2069,23.01,23.01,0,0,0,13.5939,4.1119,23.6538,23.6538,0,0,0,13.818-4.1018,14.1316,14.1316,0,0,0,6.3114-12.217A13.9847,13.9847,0,0,0,124.495,8.8554a23.1412,23.1412,0,0,0-13.5-4.1017Zm6.3534,36.3707c-18.3548,0-26.853,2.8456-27.5546,9.2266a3.6589,3.6589,0,0,0,.7512,2.6108,13.98,13.98,0,0,1,2.3069,4.952,42.924,42.924,0,0,1,1.0311,9.2486V71.26c-.2057,25.67-.45,42.3342-.7464,50.924a3.7011,3.7011,0,0,0,3.7065,3.829l29.09,0a3.735,3.735,0,0,0,2.6856-1.1413,3.6507,3.6507,0,0,0,1.0188-2.7045c-.3836-9.0506-.5781-21.85-.5781-38.0422,0-13.7656.16-25.2243.4753-34.0575l.1572-3.47.0026-.0565v-.0565c0-2.0914-1.5441-3.595-4.5892-4.4689a28.4657,28.4657,0,0,0-7.7572-.89Z"/><path d="M255.1841,126.2131q-.87,0-1.7749-.0225c-6.9571,0-12.5733-2.1025-16.6612-6.248-4.0669-4.1191-6.3515-9.8389-6.79-17.001l-.6348-10.3237c-.4331-7.65-.7959-13.3032-1.1108-17.2886-.208-4.7348-.8926-8.4014-2.0371-10.9414-1.4951-3.3149-3.1587-3.3149-3.7051-3.3149a4.4,4.4,0,0,0-3.2695,1.3623c-2.5538,2.5737-3.8121,8.6386-3.7393,18.0268.8457,18.9673,1.66,32.6387,2.4189,40.5879a3.6555,3.6555,0,0,1-3.6494,4.0039l-27.4384-.2793a2.4807,2.4807,0,0,1-2.4331-2.4414c-.2183-18.082-.6934-33.1015-1.4126-44.6426-.5909-11.03-3.0035-16.6176-7.1709-16.6176-.6944,0-2.8077,0-4.5562,4.3774-1.3184,3.2935-2.09,7.8809-2.2939,13.6353.0009,17.6919.2973,32.2094.8823,43.1049a2.4128,2.4128,0,0,1-.6621,1.8067,2.4782,2.4782,0,0,1-1.7915.7656H138.7407a2.46,2.46,0,0,1-2.458-2.5176c.083-3.624.1255-9.289.1255-16.8388,0-8.4385-.0532-15.9927-.1582-22.4536-.104-6.2159-.1592-10.5337-.1592-12.4869,0-4.6757-.6636-6.6523-1.22-7.4873a4.0171,4.0171,0,0,0-3.1724-1.539,2.4834,2.4834,0,0,1-2.2788-2.4483V48.1047A2.4026,2.4026,0,0,1,130.5844,46a20.4922,20.4922,0,0,1,5.5967-2.0039,43.8559,43.8559,0,0,1,9.895-.9868,20.572,20.572,0,0,1,11.3169,3.0576,19.19,19.19,0,0,1,6.33,6.6118c7.19-6.7344,15.0855-10.1465,23.4888-10.1465a27.1542,27.1542,0,0,1,13.6445,3.3428,26.2159,26.2159,0,0,1,8.5752,7.91c6.7134-7.4688,14.1924-11.2525,22.2515-11.2525,8.7876,0,15.9067,2.8311,21.16,8.4141,5.2061,5.5366,8.231,13.3,8.9913,23.0752.9511,10.7778,1.4336,19.2036,1.4336,25.0312,0,3.3633.6352,5.7481,1.8876,7.0889,1.2457,1.336,3.0762,1.9854,5.5977,1.9854h1.2661l-.166,13.13a2.4209,2.4209,0,0,1-1.24,2.1114,23.59,23.59,0,0,1-6.1944,2.0029A45.44,45.44,0,0,1,255.1841,126.2131Z"/><path class="cls-1" d="M231.6826,43.7826q12.705,0,20.25,8.02,7.5416,8.0214,8.6554,22.3159,1.4289,16.1987,1.4295,24.9342,0,5.5637,2.2241,7.9423,2.2222,2.3834,6.5115,2.3822l-.15,11.8645a1.17,1.17,0,0,1-.5854,1.0273,22.6207,22.6207,0,0,1-5.8562,1.8784,43.9442,43.9442,0,0,1-8.979.8161q-.8533,0-1.741-.0228-10.0064,0-15.8032-5.8764-5.7992-5.8717-6.4324-16.1987l-.6351-10.3245q-.6375-11.276-1.112-17.3106-.3205-7.306-2.1438-11.3562-1.8274-4.0515-4.8447-4.0515-8.42,0-8.2587,20.649,1.2756,28.6365,2.4246,40.6968a2.4054,2.4054,0,0,1-2.4054,2.6354l-.0257,0-27.4-.2795a1.22,1.22,0,0,1-1.1954-1.207q-.33-27.2965-1.4155-44.7046-.9527-17.7852-8.4181-17.79-3.6548,0-5.717,5.1635-2.0666,5.1633-2.3823,14.0548,0,26.7645.8832,43.2172a1.1913,1.1913,0,0,1-1.2054,1.254l-28.6138,0a1.209,1.209,0,0,1-1.2084-1.2389q.1242-5.41.1259-16.8675,0-12.8625-.1582-22.474-.1611-9.6079-.1594-12.4659,0-6.0346-1.4295-8.1808a5.2118,5.2118,0,0,0-4.089-2.0893,1.2333,1.2333,0,0,1-1.1523-1.2049l0-10.8866a1.1716,1.1716,0,0,1,.549-1.0273,19.532,19.532,0,0,1,5.2484-1.8641,42.3981,42.3981,0,0,1,9.6091-.9538,19.2594,19.2594,0,0,1,10.6409,2.8592,17.8971,17.8971,0,0,1,6.6709,7.6235q10.959-10.9608,23.8234-10.96A25.81,25.81,0,0,1,200.2357,46.96a25.1158,25.1158,0,0,1,9.0519,8.8938q10.1622-12.0693,22.395-12.0716m0-2.5c-8.0115,0-15.447,3.5439-22.1392,10.5422a27.2721,27.2721,0,0,0-8.0669-7.0347,28.3875,28.3875,0,0,0-14.2651-3.5075c-8.2958,0-16.0956,3.1823-23.2241,9.4664a20.4836,20.4836,0,0,0-5.918-5.7331A21.7986,21.7986,0,0,0,146.0762,41.76a45.067,45.067,0,0,0-10.1816,1.02,21.66,21.66,0,0,0-5.9443,2.1433,3.6885,3.6885,0,0,0-1.7806,3.1816l0,10.8866a3.73,3.73,0,0,0,3.4052,3.6926c1.71.17,2.1211.7862,2.2562.9887.3033.4551,1.0094,2.0286,1.0094,6.7937,0,1.98.0538,6.1878.16,12.5078.1047,6.46.1578,14.0076.1578,22.4321,0,7.5358-.0421,13.1915-.1252,16.81a3.709,3.709,0,0,0,3.7077,3.7963l28.6138,0a3.6913,3.6913,0,0,0,3.7019-3.888c-.5832-10.8649-.8792-25.3455-.88-43.0387.2012-5.5888.9424-10.02,2.2033-13.1705,1.4349-3.5923,2.911-3.5923,3.396-3.5923,4.4335,0,5.6131,9.6634,5.9216,15.4236.719,11.54,1.1937,26.5384,1.4122,44.6012a3.7362,3.7362,0,0,0,3.67,3.6766l27.4.2795.0128,0,.0384,0a4.9053,4.9053,0,0,0,4.8941-5.3729c-.7568-7.9309-1.5688-21.5643-2.4137-40.5242-.0815-11.23,1.7907-15.4927,3.3771-17.0913a3.1648,3.1648,0,0,1,2.382-.9928c.3468,0,1.4024,0,2.5658,2.5793,1.0784,2.3935,1.7262,5.9056,1.9251,10.438l.0019.0436.0034.0434c.3153,3.9975.6779,9.6417,1.1083,17.2551l.6358,10.3369c.4574,7.4722,2.8627,13.4619,7.149,17.8019,4.3235,4.3855,10.2285,6.6132,17.55,6.62q.9037.0228,1.7732.0228a46.6293,46.6293,0,0,0,9.4939-.87,24.7064,24.7064,0,0,0,6.5331-2.1272,3.6719,3.6719,0,0,0,1.8934-3.1934l.15-11.8643.032-2.5317h-2.5318c-2.1554,0-3.6873-.5191-4.6831-1.5871-1.0161-1.0881-1.5525-3.2444-1.5525-6.2374,0-5.865-.4842-14.328-1.4392-25.1539-.7811-10.04-3.9189-18.0593-9.3242-23.8087-5.5-5.8446-12.9257-8.8077-22.0715-8.8077Z"/><path d="M300.7529,125.25a34.57,34.57,0,0,1-18.28-5.0273,35.852,35.852,0,0,1-13.167-14.6319c-3.2529-6.3418-4.9023-13.935-4.9023-22.5678a45.1086,45.1086,0,0,1,5.1523-21.6363,38.592,38.592,0,0,1,34.8506-20.5883,41.3307,41.3307,0,0,1,13.3462,2.7851l-.1435-17.5679a43.04,43.04,0,0,0-.8379-9.6391,15.492,15.492,0,0,0-2.5655-5.6612l-.2412-.3212-.0083-.4019a5.2845,5.2845,0,0,1,1.607-3.9194C318.7392,2.8279,326.831,1.25,340.3,1.25a26.9232,26.9232,0,0,1,7.2519.8433c.9131.2622,3.6861,1.0581,3.6861,3.2656V8.8532c-.3164,16.7911-.4766,34.0425-.4766,51.2994,0,8.2788.1069,20.7783.3174,37.15.1211,4.6446.8833,6.6163,1.5014,7.45.8038,1.087,2.336,1.6377,4.5547,1.6377h1.25v13.2637a2.4149,2.4149,0,0,1-1.2466,2.1455,23.827,23.827,0,0,1-6.2622,1.9951,54.3739,54.3739,0,0,1-10.894.9786,20.5777,20.5777,0,0,1-11.4009-3.1387,19.1924,19.1924,0,0,1-6.5083-7.2363C315.8847,121.6018,308.72,125.25,300.7529,125.25Zm5.8716-68.3584q-.4856,0-.959.0459c-2.8511.2764-4.8335,2.3057-6.061,6.2041-1.3262,4.2066-1.63,10.1372-.9029,17.6289.8164,8.4136,2.6172,14.9536,5.3521,19.4375,2.3955,3.9317,5.1821,5.8418,8.5195,5.8428h0q.4365,0,.8843-.044c.7231-.07,2.9258-.2841,4.2153-5.25.9653-3.7153,1.1524-8.7148.5557-14.8608l-2.5034-25.7993C312.3833,57.97,309.3237,56.8918,306.6245,56.8918Z"/><path class="cls-1" d="M340.3,2.5a25.5855,25.5855,0,0,1,6.9093.7957q2.7767.7968,2.7789,2.0634V8.8534q-.4764,25.254-.4769,51.2991,0,12.3915.3175,37.1664.1576,6.0381,1.7471,8.1784,1.5867,2.1461,5.5589,2.1437v12.0137a1.17,1.17,0,0,1-.5881,1.0444,22.921,22.921,0,0,1-5.9234,1.8727,52.9652,52.9652,0,0,1-10.6409.9515,19.267,19.267,0,0,1-10.7211-2.9371,18.4627,18.4627,0,0,1-6.9083-8.4971q-9.3741,11.91-21.6,11.9111a33.1851,33.1851,0,0,1-17.6294-4.8447A34.46,34.46,0,0,1,270.4179,105.02q-4.765-9.2893-4.7645-21.9972A43.6721,43.6721,0,0,1,270.6563,61.98a37.34,37.34,0,0,1,33.75-19.9313q5.8736,0,14.6109,3.3337l-.1582-19.3765a44,44,0,0,0-.8735-9.9255,16.66,16.66,0,0,0-2.78-6.1149Q315.0461,2.5,340.3,2.5M312.573,107.3q.4965,0,1.0058-.0495,3.7945-.3682,5.3044-6.1792,1.509-5.8074.59-15.2954l-2.5617-26.3991q-5.6453-3.7368-10.2883-3.7354-.5466,0-1.0791.0517-5.06.4909-7.132,7.0729-2.0772,6.5883-.9548,18.125,1.2581,12.9647,5.529,19.9676,3.9258,6.4428,9.5866,6.4414M340.3,0c-14.0147,0-22.159,1.6518-25.6306,5.1983a6.5785,6.5785,0,0,0-1.9636,4.82l.0172.8037.4823.643a14.2706,14.2706,0,0,1,2.3517,5.2093,41.8682,41.8682,0,0,1,.8018,9.3311l.1291,15.8228a39.2868,39.2868,0,0,0-12.0818-2.28,39.8379,39.8379,0,0,0-35.9512,21.246,46.34,46.34,0,0,0-5.3017,22.2286c0,8.8339,1.6957,16.6187,5.04,23.1382a37.0777,37.0777,0,0,0,13.629,15.1289,35.7985,35.7985,0,0,0,18.93,5.21c7.8518,0,14.9371-3.356,21.1049-9.9852a20.03,20.03,0,0,0,6.0432,6.1686,21.8079,21.8079,0,0,0,12.0817,3.34A55.7011,55.7011,0,0,0,351.13,125.02a24.9974,24.9974,0,0,0,6.6012-2.119,3.6634,3.6634,0,0,0,1.9041-3.2463V105.141h-2.5c-1.8,0-2.9943-.38-3.5486-1.13-.3385-.4567-1.1347-2.0238-1.2582-6.7574-.21-16.3352-.3167-28.829-.3167-37.1012,0-17.2468.16-34.4905.4765-51.252l0-3.5414c0-2.09-1.544-3.5925-4.5892-4.4665A28.1513,28.1513,0,0,0,340.3,0ZM312.573,104.8c-2.8648,0-5.3023-1.7148-7.4518-5.2423-2.6363-4.3228-4.3774-10.6841-5.1755-18.9081-.7106-7.3234-.4243-13.0874.8508-17.1319,1.4131-4.4864,3.5242-5.1941,4.9892-5.3363.2735-.0266.5553-.04.8376-.04a15.7121,15.7121,0,0,1,7.9178,2.6905l2.4439,25.1855c.5822,6,.4068,10.8531-.5214,14.4252-.71,2.7339-1.7619,4.1872-3.1263,4.32-.2583.025-.5155.0378-.7643.0378Z"/><path d="M836.4258,124.41c-9.7012,0-17.6524-2.7539-23.6319-8.1866-6.0146-5.4609-9.0644-13.6552-9.0644-24.3535,0-15.0459-.0977-26.582-.29-34.3222l-11.623-1.5928V41.862h3.1572c3.79-.0932,6.3633-1.2793,7.835-3.624,1.5586-2.4863,2.35-6.0293,2.35-10.5312,0-1.1089-.1055-2.9449-.3145-5.4566l-.0039-.1035c0-1.9756,1.2988-3.1553,3.4737-3.1553h28.9121l-.0264,1.2754a78.01,78.01,0,0,1-1.4561,14.1255,27.9132,27.9132,0,0,1-2.4111,7.3115h22.2139a2.4621,2.4621,0,0,1,2.459,2.459v10.28a2.4614,2.4614,0,0,1-2.459,2.459L836.6748,56.76c-.2842,7.6294-.4287,18.2563-.4287,31.6167,0,4.7041.7841,8.2646,2.332,10.582a6.4677,6.4677,0,0,0,5.63,3.2569,16.6447,16.6447,0,0,0,6.4277-1.3311,15.4612,15.4612,0,0,0,4.4776-2.7939,3.7116,3.7116,0,0,1,2.48-1.0274,3.1258,3.1258,0,0,1,.4746.0361,7.7335,7.7335,0,0,1,4.69,2.3467,8.2391,8.2391,0,0,1,2.0752,5.7666c0,3.0508-1.3321,6.1319-3.958,9.1592a28.4057,28.4057,0,0,1-10.377,7.2373A35.4077,35.4077,0,0,1,836.4258,124.41Z"/><path class="cls-1" d="M835.949,20.2413a76.4186,76.4186,0,0,1-1.43,13.8967q-1.2731,6.1161-3.4942,8.8159h24.521a1.2088,1.2088,0,0,1,1.2088,1.2088v10.28a1.2087,1.2087,0,0,1-1.2085,1.2088h-.0094L835.4733,55.5q-.4764,11.5949-.4769,32.8765,0,7.469,2.5415,11.276a7.7,7.7,0,0,0,6.67,3.813,17.791,17.791,0,0,0,6.9094-1.4284,16.61,16.61,0,0,0,4.84-3.0239,2.4793,2.4793,0,0,1,1.6371-.7,1.891,1.891,0,0,1,.2857.0216,6.4938,6.4938,0,0,1,3.9572,1.9557,7.0065,7.0065,0,0,1,1.747,4.9226q0,4.133-3.6524,8.3389a27.0222,27.0222,0,0,1-9.9267,6.9082,34.0085,34.0085,0,0,1-13.5791,2.701q-14.1373,0-22.7916-7.862-8.6589-7.8621-8.6553-23.4279,0-23.8235-.3175-35.4169l-11.5948-1.589V43.112h1.9065q6.35-.1559,8.8938-4.21,2.5392-4.0479,2.5416-11.1957,0-1.7459-.3187-5.56,0-1.9053,2.224-1.9053H835.949m2.5517-2.5H808.3139c-2.87,0-4.724,1.7292-4.724,4.4053V22.25l.0085.1034c.2058,2.4766.31,4.2776.31,5.353,0,4.2631-.7265,7.583-2.1594,9.8672-1.2277,1.9562-3.4549,2.95-6.8073,3.0381h-4.3752V57.0457l2.1606.2961,9.4878,1.3c.1752,7.7151.2639,18.8751.2639,33.2288,0,11.0653,3.1878,19.57,9.4748,25.2788,6.2173,5.6474,14.451,8.5111,24.4721,8.5111a36.6472,36.6472,0,0,0,14.5668-2.9043,29.6071,29.6071,0,0,0,10.8264-7.5654c2.83-3.2614,4.265-6.6183,4.265-9.9784A9.4518,9.4518,0,0,0,863.68,98.601a8.9564,8.9564,0,0,0-5.4234-2.7381,4.4043,4.4043,0,0,0-.6627-.05,4.9563,4.9563,0,0,0-3.3237,1.3551,14.2051,14.2051,0,0,1-4.12,2.5636,15.3832,15.3832,0,0,1-5.9431,1.2341,5.24,5.24,0,0,1-4.5883-2.6977c-1.4094-2.1122-2.123-5.4391-2.123-9.8913,0-12.662.1292-22.8558.3844-30.3583l17.6375.1331a3.7188,3.7188,0,0,0,3.7367-3.7087v-10.28a3.7129,3.7129,0,0,0-3.7088-3.7088H835.2823a34.3034,34.3034,0,0,0,1.6847-5.8064,79.2724,79.2724,0,0,0,1.4815-14.355l.0522-2.5512Z"/><path d="M395.0405,124.25c-8.9463,0-16.8872-1.7558-23.602-5.22a38.0531,38.0531,0,0,1-15.7549-14.8565,43.7935,43.7935,0,0,1-5.5689-22.309,41.9494,41.9494,0,0,1,5.6543-21.7622A38.6692,38.6692,0,0,1,371.68,45.3357a50.7619,50.7619,0,0,1,23.36-5.2207c8.9453,0,16.8838,1.729,23.5957,5.1386a37.5687,37.5687,0,0,1,15.7622,14.7818,43.8,43.8,0,0,1,5.5689,22.3066,42.3743,42.3743,0,0,1-5.6519,21.8389,38.4929,38.4929,0,0,1-15.9136,14.8506A50.8058,50.8058,0,0,1,395.0405,124.25Zm-3.1758-68.77c-2.2241,0-3.9785,1.5708-5.3637,4.8027C384.9878,63.8161,384.22,68.5661,384.22,74.4a78.2942,78.2942,0,0,0,1.72,16.0244,41.22,41.22,0,0,0,5.0762,13.4873c2.1015,3.3477,4.6123,4.9737,7.6772,4.9737,1.9717,0,3.666-1.7139,5.0357-5.0957,1.52-3.7476,2.2905-8.6656,2.2905-14.6172a74.3164,74.3164,0,0,0-1.7192-15.6192,40.3187,40.3187,0,0,0-5.0733-13.1713C397.1235,57.0832,394.7148,55.48,391.8647,55.48Z"/><path class="cls-1" d="M395.04,41.365q13.1813,0,23.03,5.0029a36.1779,36.1779,0,0,1,15.2471,14.2956,42.3793,42.3793,0,0,1,5.4,21.6784,40.9533,40.9533,0,0,1-5.4787,21.2039,37.1022,37.1022,0,0,1-15.4065,14.3736A49.3492,49.3492,0,0,1,395.04,123q-13.1848,0-23.0289-5.0808a36.6639,36.6639,0,0,1-15.2471-14.3736,42.37,42.37,0,0,1-5.4-21.6808,40.5358,40.5358,0,0,1,5.4787-21.1236A37.2694,37.2694,0,0,1,372.25,46.4481a49.3126,49.3126,0,0,1,22.79-5.0831m3.6536,68.77q3.8124,0,6.194-5.8765,2.3817-5.8717,2.3822-15.0866A75.2511,75.2511,0,0,0,405.5231,73.29a41.3806,41.3806,0,0,0-5.2413-13.58q-3.4954-5.4786-8.4169-5.48-4.1328,0-6.5127,5.56-2.3817,5.56-2.3823,14.61a79.1828,79.1828,0,0,0,1.7472,16.2813,42.2713,42.2713,0,0,0,5.2413,13.8966q3.492,5.56,8.7356,5.5578M395.04,38.865a51.9969,51.9969,0,0,0-23.93,5.358,39.9019,39.9019,0,0,0-16.4152,15.24,43.1849,43.1849,0,0,0-5.83,22.4022,45.0229,45.0229,0,0,0,5.7381,22.937,39.2856,39.2856,0,0,0,16.2622,15.339c6.894,3.5561,15.0277,5.3592,24.1753,5.3592a52.0418,52.0418,0,0,0,23.93-5.3552,39.7262,39.7262,0,0,0,16.421-15.3289,43.6069,43.6069,0,0,0,5.8255-22.4742,45.0272,45.0272,0,0,0-5.7379-22.9343,38.8019,38.8019,0,0,0-16.276-15.2684c-6.8895-3.5-15.0189-5.2742-24.1629-5.2742Zm3.6536,68.77c-2.6,0-4.7644-1.4351-6.6184-4.3873a40.0043,40.0043,0,0,1-4.9116-13.08A77.0578,77.0578,0,0,1,385.47,74.4c0-5.6635.7336-10.2478,2.18-13.6253,1.7337-4.0444,3.6011-4.0444,4.2147-4.0444,2.389,0,4.4527,1.4145,6.3093,4.3245a39.1132,39.1132,0,0,1,4.9052,12.7632A73.0886,73.0886,0,0,1,404.77,89.1722c0,5.79-.74,10.55-2.1989,14.1469-.7979,1.97-2.1178,4.3162-3.8773,4.3162Z"/><path d="M762.5742,124.7629a2.452,2.452,0,0,1-2.457-2.5361c.2968-8.5918.541-25.2666.747-50.9771V67.13a44.1384,44.1384,0,0,0-1.0713-9.5322,15.0029,15.0029,0,0,0-2.7783-5.7207l-.2793-.3443V51.09c0-7.812,15.0352-8.7154,26.3448-8.7154a27.66,27.66,0,0,1,7.41.8413c.9131.2623,3.6865,1.0582,3.6865,3.2681l-.1591,3.5508c-.3165,8.8252-.4766,20.2988-.4766,34.09,0,15.4869.1777,27.8809.5283,36.8379a3.662,3.662,0,0,1-3.665,3.8008Zm13.835-88.7822a21.7862,21.7862,0,0,1-12.8721-3.8823,12.9978,12.9978,0,0,1-5.69-11.1866,12.7431,12.7431,0,0,1,5.8642-11.0361,22.5359,22.5359,0,0,1,13.0156-3.8721A21.9157,21.9157,0,0,1,789.5117,9.88a12.7977,12.7977,0,0,1,5.7764,11.0317,12.9435,12.9435,0,0,1-5.7764,11.1919A22.4267,22.4267,0,0,1,776.4092,35.9807Z"/><path class="cls-1" d="M776.7265,7.2537a20.5976,20.5976,0,0,1,12.07,3.6524,11.561,11.561,0,0,1,5.2414,10.0058,11.7028,11.7028,0,0,1-5.2414,10.1663,21.1084,21.1084,0,0,1-12.388,3.6525,20.47,20.47,0,0,1-12.1495-3.6525,11.7547,11.7547,0,0,1-5.1623-10.1663,11.51,11.51,0,0,1,5.3205-10.0058,21.2189,21.2189,0,0,1,12.3089-3.6524M783.08,43.6244a26.3085,26.3085,0,0,1,7.0675.7933q2.7765.7968,2.7788,2.0659l-.1581,3.4942q-.4764,13.3407-.4769,34.1467,0,23.3408.529,36.8863a2.4123,2.4123,0,0,1-2.4159,2.5018l-27.83,0a1.2011,1.2011,0,0,1-1.2079-1.2428q.4458-12.9142.7477-51.01V67.13a45.1276,45.1276,0,0,0-1.112-9.8476,16.1566,16.1566,0,0,0-3.0173-6.1928q0-7.4653,25.0948-7.4654M776.7265,4.7537A23.7674,23.7674,0,0,0,763.0028,8.845a13.9323,13.9323,0,0,0-6.4057,12.0669,14.1855,14.1855,0,0,0,6.2179,12.2068,23.0092,23.0092,0,0,0,13.5939,4.112,23.6533,23.6533,0,0,0,13.8179-4.1018,14.1315,14.1315,0,0,0,6.3115-12.217,13.9845,13.9845,0,0,0-6.3115-12.0565,23.14,23.14,0,0,0-13.5-4.1017ZM783.08,41.1244c-8.6885,0-15.0783.6445-19.5344,1.97-3.6771,1.094-8.06,3.3691-8.06,7.9953v.8865l.5586.6885a13.7609,13.7609,0,0,1,2.54,5.249,42.92,42.92,0,0,1,1.031,9.2486V71.26c-.2057,25.6712-.45,42.3352-.7463,50.9239a3.7013,3.7013,0,0,0,3.7065,3.829l27.83,0a4.9473,4.9473,0,0,0,3.5483-1.51,4.8617,4.8617,0,0,0,1.3657-3.59c-.35-8.95-.5271-21.3271-.5271-36.7887,0-13.7659.16-25.2244.4753-34.0575l.1572-3.47.0025-.0565v-.0565c0-2.0914-1.544-3.5949-4.5891-4.4689a28.4657,28.4657,0,0,0-7.7572-.89Z"/><path d="M715.5976,124.25c-8.9463,0-16.8877-1.7558-23.6025-5.22a38.0578,38.0578,0,0,1-15.7544-14.8565,43.7958,43.7958,0,0,1-5.5688-22.309,41.9493,41.9493,0,0,1,5.6542-21.7622,38.6728,38.6728,0,0,1,15.91-14.7671,50.7734,50.7734,0,0,1,23.3613-5.2207c8.9453,0,16.8838,1.729,23.5967,5.1386A37.5756,37.5756,0,0,1,754.956,60.0354a43.7993,43.7993,0,0,1,5.5684,22.3066,42.3788,42.3788,0,0,1-5.6514,21.8389,38.5,38.5,0,0,1-15.915,14.8506A50.7994,50.7994,0,0,1,715.5976,124.25Zm.3467-69.0078c-1.8867,0-3.6836,1.332-5.34,3.9585-2.05,3.251-3.5537,7.8213-4.47,13.5835a78.3026,78.3026,0,0,0-.8183,16.0962,41.2536,41.2536,0,0,0,2.8955,14.1177c1.55,3.6347,3.7744,5.6357,6.8017,6.1171a3.4726,3.4726,0,0,0,.5479.044c1.752,0,3.5107-1.4424,5.2256-4.2861,2.0889-3.461,3.6221-8.1968,4.5576-14.0762A74.3006,74.3006,0,0,0,726.1,75.1023a40.3465,40.3465,0,0,0-2.9424-13.8052c-1.56-3.5879-3.6865-5.5493-6.502-5.9971A4.5556,4.5556,0,0,0,715.9443,55.2424Z"/><path class="cls-1" d="M715.5974,41.365q13.1814,0,23.03,5.0029a36.1781,36.1781,0,0,1,15.2472,14.2956,42.3793,42.3793,0,0,1,5.3995,21.6784,40.9542,40.9542,0,0,1-5.4786,21.2039,37.1028,37.1028,0,0,1-15.4065,14.3736A49.35,49.35,0,0,1,715.5974,123q-13.1848,0-23.0288-5.0808a36.6636,36.6636,0,0,1-15.2472-14.3736,42.37,42.37,0,0,1-5.3995-21.6808,40.5367,40.5367,0,0,1,5.4786-21.1236A37.2694,37.2694,0,0,1,692.807,46.4481a49.3129,49.3129,0,0,1,22.79-5.0831m-.0368,69.0442q3.3471,0,6.2965-4.89,3.2741-5.4248,4.7218-14.5253a75.25,75.25,0,0,0,.7686-15.9595,41.3788,41.3788,0,0,0-3.0437-14.2349q-2.5917-5.96-7.4519-6.7336a5.7722,5.7722,0,0,0-.9077-.073q-3.5363,0-6.3973,4.5414-3.2253,5.1171-4.647,14.0543a79.1892,79.1892,0,0,0-.8313,16.3536,42.2737,42.2737,0,0,0,2.9941,14.5473q2.5754,6.0395,7.7544,6.8606a4.7237,4.7237,0,0,0,.7435.0595m.0368-71.5442a51.998,51.998,0,0,0-23.93,5.358,39.9027,39.9027,0,0,0-16.4153,15.24,43.1849,43.1849,0,0,0-5.83,22.4022,45.0233,45.0233,0,0,0,5.738,22.937,39.2853,39.2853,0,0,0,16.2623,15.339c6.8939,3.5561,15.0276,5.3592,24.1752,5.3592a52.0415,52.0415,0,0,0,23.93-5.3552,39.7277,39.7277,0,0,0,16.4211-15.3289,43.6074,43.6074,0,0,0,5.8254-22.4742,45.0272,45.0272,0,0,0-5.7379-22.9343A38.8014,38.8014,0,0,0,739.76,44.1392c-6.8895-3.5-15.0189-5.2742-24.1629-5.2742Zm-.0368,69.0442a2.2456,2.2456,0,0,1-.351-.0285c-2.5671-.4082-4.48-2.1655-5.8473-5.3723A40.0046,40.0046,0,0,1,706.5657,88.82a77.0573,77.0573,0,0,1,.8032-15.8392c.8894-5.5934,2.3338-10.0055,4.2929-13.1139,1.412-2.2389,2.8529-3.3744,4.2824-3.3744a3.2914,3.2914,0,0,1,.5151.042c2.3593.3752,4.1754,2.0962,5.5519,5.2616a39.1132,39.1132,0,0,1,2.84,13.3752,73.0863,73.0863,0,0,1-.7414,15.43c-.9092,5.7181-2.3873,10.3026-4.3932,13.6262-1.0132,1.68-2.5561,3.6821-4.1561,3.6821Z"/><path d="M621.31,125.25a34.57,34.57,0,0,1-18.28-5.0273,35.8479,35.8479,0,0,1-13.167-14.6319c-3.252-6.3408-4.9014-13.9336-4.9014-22.5673a45.114,45.114,0,0,1,5.1514-21.6368,38.5894,38.5894,0,0,1,34.8515-20.5883A41.3408,41.3408,0,0,1,638.31,43.5842l-.1435-17.5684a43.1022,43.1022,0,0,0-.8379-9.64,15.5117,15.5117,0,0,0-2.5654-5.6607l-.2412-.3212-.0088-.4019A5.2883,5.2883,0,0,1,636.12,6.073C639.2969,2.8279,647.3877,1.25,660.8574,1.25a26.9266,26.9266,0,0,1,7.252.8433c.913.2622,3.6865,1.0581,3.6865,3.2656V8.8532c-.3174,16.7735-.4776,34.0254-.4776,51.2994,0,8.2421.1065,20.7412.3174,37.15.1221,4.6446.8838,6.6163,1.501,7.45a4.607,4.607,0,0,0,3.5107,1.5928,2.4769,2.4769,0,0,1,2.295,2.4483v10.86a2.4156,2.4156,0,0,1-1.2461,2.1455,23.81,23.81,0,0,1-6.2627,1.9951,54.3634,54.3634,0,0,1-10.8936.9786,20.5784,20.5784,0,0,1-11.4014-3.1387,19.1868,19.1868,0,0,1-6.5087-7.2363C636.4414,121.6018,629.2773,125.25,621.31,125.25Zm7.9854-68.4477c-2.74,0-4.8936,1.7475-6.584,5.3422-1.8769,3.9883-2.9726,9.8252-3.2558,17.3487-.3174,8.4472.5918,15.1689,2.7011,19.9785,2.0039,4.5732,4.7979,6.8652,8.543,7.0059l.1445.0029c1.9092,0,3.458-1.5176,4.7354-4.6406,1.4541-3.5508,2.3095-8.4805,2.542-14.6514l.9736-25.9082c-3.3848-2.8545-6.5977-4.3623-9.5469-4.4732Z"/><path class="cls-1" d="M660.8572,2.5a25.5868,25.5868,0,0,1,6.9094.7957q2.7765.7968,2.7788,2.0634V8.8534q-.4762,25.2541-.4769,51.2991,0,12.3915.3176,37.1664.1575,6.0381,1.7471,8.1784a5.8072,5.8072,0,0,0,4.402,2.0939,1.23,1.23,0,0,1,1.1569,1.2029v10.8607a1.17,1.17,0,0,1-.5881,1.0444,22.9277,22.9277,0,0,1-5.9235,1.8726,52.9652,52.9652,0,0,1-10.6409.9515,19.2673,19.2673,0,0,1-10.7211-2.9371,18.4625,18.4625,0,0,1-6.9082-8.4971Q633.536,123.9991,621.31,124a33.1848,33.1848,0,0,1-17.6293-4.8447A34.4614,34.4614,0,0,1,590.9749,105.02Q586.21,95.7311,586.21,83.0232a43.671,43.671,0,0,1,5.003-21.0433,37.3395,37.3395,0,0,1,33.75-19.9313q5.8736,0,14.6109,3.3337l-.1582-19.3765a43.9991,43.9991,0,0,0-.8736-9.9255,16.66,16.66,0,0,0-2.78-6.1149Q635.603,2.5,660.8572,2.5M630.8431,107.7307q3.6762,0,5.8933-5.4167,2.2732-5.553,2.6333-15.0786l.9744-25.9085a1.2542,1.2542,0,0,0-.439-.9928q-5.4384-4.5948-10.31-4.776-.1508-.0057-.3-.0057-4.8676,0-7.7154,6.06-2.9409,6.2507-3.3736,17.8338-.4895,13.0163,2.805,20.5282,3.2933,7.5165,9.641,7.7529.0957.0036.1908.0036M660.8572,0c-14.0147,0-22.159,1.6518-25.6306,5.1983a6.5789,6.5789,0,0,0-1.9636,4.82l.0172.8036.4822.6431a14.2655,14.2655,0,0,1,2.3518,5.2094,41.8643,41.8643,0,0,1,.8019,9.331l.129,15.8228a39.2857,39.2857,0,0,0-12.0817-2.28,39.8377,39.8377,0,0,0-35.9512,21.246A46.34,46.34,0,0,0,583.71,83.0232c0,8.8338,1.6958,16.6186,5.04,23.1382A37.0782,37.0782,0,0,0,602.3794,121.29a35.799,35.799,0,0,0,18.93,5.21c7.8518,0,14.9371-3.3559,21.1049-9.9852a20.03,20.03,0,0,0,6.0433,6.1686,21.8075,21.8075,0,0,0,12.0816,3.34,55.7,55.7,0,0,0,11.1471-1.0033,25.0028,25.0028,0,0,0,6.6012-2.1189,3.6639,3.6639,0,0,0,1.9042-3.2463V108.794a3.7189,3.7189,0,0,0-3.4316-3.6926,3.5245,3.5245,0,0,1-2.617-1.09c-.3385-.4567-1.1347-2.0238-1.2583-6.7574-.21-16.3336-.3167-28.8274-.3167-37.1012,0-17.2468.16-34.49.4765-51.252l0-3.5414c0-2.09-1.544-3.5925-4.5892-4.4665A28.1523,28.1523,0,0,0,660.8572,0ZM630.8431,105.2307l-.0972-.0018c-2.0526-.0772-5.0578-.81-7.4447-6.258-2.0336-4.6369-2.9072-11.1741-2.5966-19.4309.2765-7.3527,1.3321-13.0264,3.1375-16.8635,1.9485-4.1448,4.0454-4.6241,5.4532-4.6241q.1021,0,.2058.0039c2.5309.0952,5.3282,1.3727,8.3213,3.799l-.951,25.2861c-.2265,6.0238-1.05,10.81-2.4486,14.2254-1.0492,2.564-2.2536,3.8639-3.58,3.8639Z"/><path d="M561.6987,124.41c-9.7012,0-17.6518-2.7539-23.6318-8.1866-6.0152-5.4609-9.065-13.6543-9.065-24.353,0-15.0351-.0971-26.5718-.2895-34.3227L517.09,55.9553V41.862h3.1563c3.7905-.0932,6.3633-1.2788,7.8354-3.624,1.5591-2.4868,2.35-6.03,2.35-10.5312,0-1.11-.1059-2.9463-.3144-5.4566l-.0044-.1035c0-1.9756,1.2988-3.1553,3.4741-3.1553h26.3823a2.4836,2.4836,0,0,1,2.4688,2.5591,76.0805,76.0805,0,0,1-1.4214,12.8418,27.9119,27.9119,0,0,1-2.4116,7.3115h22.2143a2.4616,2.4616,0,0,1,2.4585,2.459v10.28a2.4615,2.4615,0,0,1-2.4585,2.459L561.9477,56.76c-.2841,7.6162-.4282,18.2432-.4282,31.6172,0,4.7036.7842,8.2641,2.3311,10.582a6.47,6.47,0,0,0,5.63,3.2564,16.6473,16.6473,0,0,0,6.4283-1.3311,15.4857,15.4857,0,0,0,4.47-2.7856,3.74,3.74,0,0,1,2.4961-1.0342,3.1173,3.1173,0,0,1,.479.0366,7.7348,7.7348,0,0,1,4.6777,2.3447,8.2375,8.2375,0,0,1,2.0757,5.7676c0,3.05-1.3315,6.1309-3.958,9.1582a28.4015,28.4015,0,0,1-10.377,7.2373A35.4056,35.4056,0,0,1,561.6987,124.41Z"/><path class="cls-1" d="M559.97,20.2414a1.2327,1.2327,0,0,1,1.2188,1.2679,74.3934,74.3934,0,0,1-1.3959,12.6287q-1.2732,6.1161-3.4943,8.8159h24.5211a1.2088,1.2088,0,0,1,1.2088,1.2088v10.28a1.2089,1.2089,0,0,1-1.2087,1.2088l-.0093,0L560.7462,55.5q-.4762,11.5947-.4769,32.8765,0,7.469,2.5416,11.276a7.7,7.7,0,0,0,6.67,3.8129,17.7906,17.7906,0,0,0,6.9094-1.4284,16.6092,16.6092,0,0,0,4.8306-3.0155,2.5073,2.5073,0,0,1,1.6533-.7075,1.8966,1.8966,0,0,1,.29.0221A6.4884,6.4884,0,0,1,587.11,100.29a7.0067,7.0067,0,0,1,1.7471,4.9226q0,4.133-3.6524,8.339a27.0245,27.0245,0,0,1-9.9267,6.9082,34.0091,34.0091,0,0,1-13.5791,2.7009q-14.1375,0-22.7916-7.862-8.6589-7.8621-8.6554-23.4279,0-23.8233-.3175-35.4169L518.34,54.865V43.1121h1.9065q6.35-.1558,8.8938-4.21,2.5392-4.0479,2.5416-11.1957,0-1.746-.3187-5.56,0-1.9053,2.224-1.9053H559.97m0-2.5H533.5868c-2.87,0-4.724,1.7292-4.724,4.4053V22.25l.0086.1033c.2057,2.4764.31,4.2775.31,5.3531,0,4.2632-.7265,7.583-2.1594,9.8672-1.2277,1.9561-3.4549,2.95-6.8073,3.0381H515.84V57.0457L518,57.3419l9.4878,1.3c.1752,7.7151.2639,18.8751.2639,33.2288,0,11.0653,3.1878,19.57,9.4748,25.2788,6.2173,5.6475,14.4511,8.5111,24.4722,8.5111a36.6446,36.6446,0,0,0,14.5667-2.9043,29.6069,29.6069,0,0,0,10.8264-7.5653c2.83-3.2614,4.2651-6.6183,4.2651-9.9785a9.4522,9.4522,0,0,0-2.4039-6.6116,8.9514,8.9514,0,0,0-5.41-2.7359,4.4317,4.4317,0,0,0-.6693-.051,4.9846,4.9846,0,0,0-3.3388,1.3607,14.2068,14.2068,0,0,1-4.1119,2.5566,15.3828,15.3828,0,0,1-5.9431,1.2341,5.24,5.24,0,0,1-4.5882-2.6977c-1.4095-2.1121-2.1231-5.439-2.1231-9.8912,0-12.6617.1292-22.8556.3844-30.3583l17.6375.133a3.7188,3.7188,0,0,0,3.7368-3.7086v-10.28a3.713,3.713,0,0,0-3.7088-3.7088h-20.264a34.3094,34.3094,0,0,0,1.6848-5.8064,77.2336,77.2336,0,0,0,1.4469-13.0563,3.7325,3.7325,0,0,0-3.7174-3.85Z"/><path d="M514.104,123.7737c-7.586,0-13.5254-1.8125-17.6538-5.3858-4.166-3.6025-6.502-9.5088-6.9419-17.5547l-.6353-14.1474c-.1045-1.2315-.2124-2.7745-.3174-4.5909q-.1589-2.704-.3183-6.37c-.104-5.8262-.9844-10.2217-2.6182-13.0962-1.522-2.6738-3.4785-3.9736-5.9805-3.9736-2.2045,0-3.9282,1.6626-5.269,5.0825-1.47,3.752-2.2153,8.9429-2.2153,15.4282,0,15.4038.3193,28.628.95,39.3057a3.6208,3.6208,0,0,1-.9873,2.7236,3.6843,3.6843,0,0,1-2.6719,1.1494h-26.42a3.6622,3.6622,0,0,1-3.6675-3.7168c.1846-12.21.2783-29.3349.2783-50.8984,0-4.5347-.6562-6.4336-1.207-7.228a4.0757,4.0757,0,0,0-3.1782-1.48,2.482,2.482,0,0,1-2.2852-2.45l0-12.2241.5581-.3711a20.06,20.06,0,0,1,6.4468-2.3984,44.876,44.876,0,0,1,9.9692-.9859,18.3469,18.3469,0,0,1,11.314,3.4268,19.5919,19.5919,0,0,1,5.9146,7.44A38.367,38.367,0,0,1,477.81,43.3445a29.4529,29.4529,0,0,1,13.2642-3.2295c8.9893,0,16.2109,2.7461,21.4644,8.1611,5.2187,5.3862,8.1948,13.0791,8.8471,22.8652.32,5.1245.8013,13.7852,1.4307,25.7466.2417,4.4756,1.1963,6.3516,1.9546,7.1377.9912,1.0332,2.6128,1.5957,4.8232,1.6748a1.8435,1.8435,0,0,1,1.8,1.8389V118.84a2.4209,2.4209,0,0,1-1.1792,2.1064,20,20,0,0,1-5.8569,1.9277A52.1607,52.1607,0,0,1,514.104,123.7737Z"/><path class="cls-1" d="M491.074,41.365q13.0219,0,20.5676,7.7817,7.5416,7.7841,8.4971,22.0775.4764,7.6247,1.43,25.73.3169,5.8788,2.3031,7.94,1.8429,1.922,5.6783,2.0553a.6043.6043,0,0,1,.5947.59l0,11.3014a1.1654,1.1654,0,0,1-.5538,1.0227A19.05,19.05,0,0,1,524.11,121.65a50.7327,50.7327,0,0,1-10.0058.8736q-10.959,0-16.8361-5.0808t-6.5115-16.6779L490.1214,86.63c-.1063-1.27-.2137-2.8025-.3176-4.6063q-.1593-2.6985-.3175-6.351-.1611-9.0555-2.78-13.6606-2.6207-4.6038-7.0676-4.6062-4.131,0-6.4324,5.8764-2.3037,5.8788-2.302,15.8846,0,23.2287.9517,39.3789a2.4045,2.4045,0,0,1-2.411,2.55h-26.42a2.4118,2.4118,0,0,1-2.4172-2.4486q.2776-18.3623.2782-50.9166,0-5.8753-1.4295-7.94a5.27,5.27,0,0,0-4.0867-2.0131,1.2326,1.2326,0,0,1-1.1543-1.2053l0-11.5542a19.1164,19.1164,0,0,1,6.0358-2.2217,43.4621,43.4621,0,0,1,9.6882-.9538,17.0555,17.0555,0,0,1,10.5618,3.1755,18.8694,18.8694,0,0,1,6.2731,8.7356,38.1488,38.1488,0,0,1,11.5947-9.29A28.084,28.084,0,0,1,491.074,41.365m0-2.5A30.6959,30.6959,0,0,0,477.25,42.2267a38.609,38.609,0,0,0-9.7647,7.1209,20.4006,20.4006,0,0,0-5.477-6.3246,19.5645,19.5645,0,0,0-12.0694-3.6811,46.1315,46.1315,0,0,0-10.25,1.0179,21.2041,21.2041,0,0,0-6.8577,2.5757l-1.1159.7419v1.34l0,11.5541a3.7262,3.7262,0,0,0,3.4157,3.6938,3.0085,3.0085,0,0,1,2.27.9473c.2968.4283.9852,1.9183.9852,6.5172,0,21.5674-.0935,38.6855-.2779,50.8787a4.9118,4.9118,0,0,0,4.9169,4.9865h26.42a4.9046,4.9046,0,0,0,4.9067-5.197c-.6286-10.6561-.9474-23.8555-.9474-39.2317,0-6.3288.7166-11.3663,2.13-14.9724,1.6812-4.2886,3.5053-4.2886,4.1047-4.2886,1.2845,0,3.1893.3466,4.8949,3.343,1.5282,2.6886,2.3538,6.8841,2.4532,12.4683l0,.031.0014.031c.1,2.3375.2071,4.4881.32,6.3919.0993,1.7226.2063,3.2776.3179,4.619l.633,14.0872c.46,8.4217,2.9407,14.6233,7.3738,18.4567,4.3614,3.7752,10.5763,5.69,18.4713,5.69a53.4368,53.4368,0,0,0,10.5035-.9236,21.1758,21.1758,0,0,0,6.2306-2.07,3.672,3.672,0,0,0,1.8063-3.1892l0-11.3014a3.092,3.092,0,0,0-3.0064-3.0883,5.6793,5.6793,0,0,1-3.9621-1.2872c-.4079-.4228-1.37-1.8758-1.6112-6.3442-.63-11.97-1.1112-20.635-1.4309-25.7511-.673-10.1-3.767-18.0568-9.1967-23.6611-5.5-5.6686-13.0232-8.5422-22.3631-8.5422Z"/></svg>